<svg width="24" height="24" viewBox="0 0 24 24" fill="none" xmlns="http://www.w3.org/2000/svg">
<path d="M12 0.75H20.75C21.413 0.75 22.0489 1.01339 22.5178 1.48223C22.9866 1.95107 23.25 2.58696 23.25 3.25V20.75C23.25 21.413 22.9866 22.0489 22.5178 22.5178C22.0489 22.9866 21.413 23.25 20.75 23.25H12M12 0.75H3.25C2.58696 0.75 1.95107 1.01339 1.48223 1.48223C1.01339 1.95107 0.75 2.58696 0.75 3.25V20.75C0.75 21.413 1.01339 22.0489 1.48223 22.5178C1.95107 22.9866 2.58696 23.25 3.25 23.25H12M12 0.75V23.25" stroke="#6750A4" stroke-linecap="round" stroke-linejoin="round"/>
</svg>
